<svg id="Capa_1" enable-background="new 0 0 512 512" height="512" viewBox="0 0 512 512" width="512" xmlns="http://www.w3.org/2000/svg"><g><g><g><g><g><path d="m87.714 457.426h141.32v30h-141.32z" fill="#d0e4fc"/></g></g></g><g><g><g><path d="m282.966 457.426h141.32v30h-141.32z" fill="#b4c5f2"/></g></g></g><g><g><g><path d="m87.714 27.676h141.32v30h-141.32z" fill="#d0e4fc"/></g></g></g><g><g><g><path d="m277.214 27.676h148.123v30h-148.123z" fill="#b4c5f2"/></g></g></g><g><g><g><path d="m291.942 241.355h151.126v30h-151.126z" fill="#b4c5f2"/></g></g></g><g><g><g><path d="m68.932 241.355h150.712v30h-150.712z" fill="#d0e4fc"/></g></g></g><g><g><g><path d="m43.345 338.527h230.256v30h-230.256z" fill="#d0e4fc" transform="matrix(.707 -.707 .707 .707 -203.566 215.603)"/></g></g></g><g><g><g><path d="m245.038 140.723h222.478v30h-222.478z" fill="#b4c5f2" transform="matrix(.707 -.707 .707 .707 -5.762 297.536)"/></g></g></g><g><g><g><path d="m338.527 238.399h30v230.256h-30z" fill="#b4c5f2" transform="matrix(.707 -.707 .707 .707 -146.436 353.525)"/></g></g></g><g><g><g><path d="m140.723 44.484h30v222.478h-30z" fill="#d0e4fc" transform="matrix(.707 -.707 .707 .707 -64.502 155.723)"/></g></g></g><g><g><g><path d="m30.061 132.557h245.575v30h-245.575z" fill="#ebf3fe" transform="matrix(.707 -.707 .707 .707 -59.57 151.298)"/></g></g></g><g><g><g><path d="m135.202 234.973h30v253.65h-30z" fill="#ebf3fe" transform="matrix(.707 -.707 .707 .707 -211.836 212.177)"/></g></g></g><g><g><g><path d="m234.465 348.024h257.119v30h-257.119z" fill="#d0e4fc" transform="matrix(.707 -.707 .707 .707 -150.37 363.024)"/></g></g></g><g><g><g><path d="m346.605 24.769h30v245.575h-30z" fill="#d0e4fc" transform="matrix(.707 -.707 .707 .707 1.573 298.912)"/></g></g></g></g><g><path d="m51.356 409.286c-28.318 0-51.356 23.039-51.356 51.357s23.038 51.357 51.356 51.357 51.357-23.039 51.357-51.357-23.038-51.357-51.357-51.357z" fill="#674cc3"/><circle cx="42.321" cy="256" fill="#45e6d1" r="41.966"/><circle cx="469.679" cy="256" fill="#29cccc" r="41.966"/><path d="m460.644 409.286c-28.318 0-51.357 23.039-51.357 51.357s23.038 51.357 51.357 51.357 51.356-23.039 51.356-51.357-23.038-51.357-51.356-51.357z" fill="#68339f"/><path d="m51.356 0c-28.318 0-51.356 23.039-51.356 51.357s23.038 51.357 51.356 51.357 51.357-23.039 51.357-51.357-23.038-51.357-51.357-51.357z" fill="#674cc3"/><path d="m460.644 102.714c28.318 0 51.356-23.039 51.356-51.357s-23.038-51.357-51.356-51.357-51.357 23.039-51.357 51.357 23.038 51.357 51.357 51.357z" fill="#68339f"/></g><g><path d="m214.034 470.034c0 23.14 18.826 41.966 41.966 41.966l21.214-41.966-21.214-41.966c-23.14 0-41.966 18.826-41.966 41.966z" fill="#45e6d1"/><path d="m214.034 42.677c0 23.14 18.826 41.966 41.966 41.966l20.983-41.966-20.983-41.967c-23.14 0-41.966 18.827-41.966 41.967z" fill="#45e6d1"/><path d="m297.966 42.676c0-23.14-18.826-41.966-41.966-41.966v83.932c23.14.001 41.966-18.826 41.966-41.966z" fill="#29cccc"/><path d="m204.644 256c0 28.318 23.038 51.357 51.356 51.357l21.214-48.49-21.214-54.224c-28.318 0-51.356 23.039-51.356 51.357z" fill="#ffe500"/></g><path d="m256 428.068v83.932c23.14 0 41.966-18.826 41.966-41.966s-18.826-41.966-41.966-41.966z" fill="#29cccc"/><path d="m307.356 256c0-28.318-23.038-51.357-51.356-51.357v102.714c28.318 0 51.356-23.039 51.356-51.357z" fill="#fdca4c"/></g></svg>