<?xml version="1.0" encoding="utf-8"?>
<!-- Generator: Adobe Illustrator 27.6.1, SVG Export Plug-In . SVG Version: 6.00 Build 0)  -->
<svg version="1.1" id="Capa_1" xmlns="http://www.w3.org/2000/svg" xmlns:xlink="http://www.w3.org/1999/xlink" x="0px" y="0px"
	 viewBox="0 0 512 512" enable-background="new 0 0 512 512" xml:space="preserve">
<circle fill="#FFFFFF" cx="254.9" cy="256" r="252.8"/>
<g transform="translate(256.0, 256.0) scale(0.75) translate(-256.0, -256.0)">
	<g>
		<g>
			<g>
				<g>
					<g>
						<path fill="#D0E4FC" d="M109,436h122.3v26H109V436z"/>
					</g>
				</g>
			</g>
			<g>
				<g>
					<g>
						<path fill="#B4C5F2" d="M277.9,436h122.3v26H277.9V436z"/>
					</g>
				</g>
			</g>
			<g>
				<g>
					<g>
						<path fill="#D0E4FC" d="M109,64.2h122.3v26H109V64.2z"/>
					</g>
				</g>
			</g>
			<g>
				<g>
					<g>
						<path fill="#B4C5F2" d="M272.9,64.2H401v26H272.9V64.2z"/>
					</g>
				</g>
			</g>
			<g>
				<g>
					<g>
						<path fill="#B4C5F2" d="M285.6,249.1h130.7v26H285.6V249.1z"/>
					</g>
				</g>
			</g>
			<g>
				<g>
					<g>
						<path fill="#D0E4FC" d="M92.7,249.1h130.4v26H92.7L92.7,249.1z"/>
					</g>
				</g>
			</g>
			<g>
				<g>
					<g>
						<path fill="#D0E4FC" d="M90.5,407.3l140.8-140.8l18.3,18.3L108.9,425.7L90.5,407.3z"/>
					</g>
				</g>
			</g>
			<g>
				<g>
					<g>
						<path fill="#B4C5F2" d="M264,233.9L400.1,97.8l18.3,18.3L282.4,252.2L264,233.9z"/>
					</g>
				</g>
			</g>
			<g>
				<g>
					<g>
						<path fill="#B4C5F2" d="M259.3,284.9l18.3-18.3l140.8,140.8l-18.3,18.3L259.3,284.9z"/>
					</g>
				</g>
			</g>
			<g>
				<g>
					<g>
						<path fill="#D0E4FC" d="M90.6,116.2l18.3-18.3L245,233.9l-18.3,18.3L90.6,116.2z"/>
					</g>
				</g>
			</g>
			<g>
				<g>
					<g>
						<path fill="#EBF3FE" d="M81,233.9L231.2,83.7l18.3,18.3L99.4,252.2L81,233.9z"/>
					</g>
				</g>
			</g>
			<g>
				<g>
					<g>
						<path fill="#EBF3FE" d="M76.2,284.9l18.3-18.3l155.1,155.1L231.4,440L76.2,284.9z"/>
					</g>
				</g>
			</g>
			<g>
				<g>
					<g>
						<path fill="#D0E4FC" d="M259.3,423.8l157.3-157.3l18.3,18.3L277.6,442.1L259.3,423.8z"/>
					</g>
				</g>
			</g>
			<g>
				<g>
					<g>
						<path fill="#D0E4FC" d="M261.6,102l18.3-18.3l150.2,150.2l-18.3,18.3L261.6,102z"/>
					</g>
				</g>
			</g>
		</g>
		<g>
			<path fill="#674CC3" d="M77.5,394.4c-24.5,0-44.4,19.9-44.4,44.4s19.9,44.4,44.4,44.4s44.4-19.9,44.4-44.4S102,394.4,77.5,394.4z
				"/>
			<circle fill="#45E6D1" cx="69.7" cy="261.8" r="36.3"/>
			<circle fill="#29CCCC" cx="439.4" cy="261.8" r="36.3"/>
			<path fill="#68339F" d="M431.6,394.4c-24.5,0-44.4,19.9-44.4,44.4s19.9,44.4,44.4,44.4s44.4-19.9,44.4-44.4
				S456.1,394.4,431.6,394.4z"/>
			<path fill="#674CC3" d="M77.5,40.3c-24.5,0-44.4,19.9-44.4,44.4s19.9,44.4,44.4,44.4s44.4-19.9,44.4-44.4S102,40.3,77.5,40.3z"/>
			<path fill="#68339F" d="M431.6,129.2c24.5,0,44.4-19.9,44.4-44.4s-19.9-44.4-44.4-44.4s-44.4,19.9-44.4,44.4
				S407.1,129.2,431.6,129.2z"/>
		</g>
		<g>
			<path fill="#45E6D1" d="M218.2,446.9c0,20,16.3,36.3,36.3,36.3l18.4-36.3l-18.4-36.3C234.5,410.6,218.2,426.9,218.2,446.9
				L218.2,446.9z"/>
			<path fill="#45E6D1" d="M218.2,77.2c0,20,16.3,36.3,36.3,36.3l18.2-36.3l-18.2-36.3C234.5,40.9,218.2,57.2,218.2,77.2z"/>
			<path fill="#29CCCC" d="M290.8,77.2c0-20-16.3-36.3-36.3-36.3v72.6C274.6,113.5,290.8,97.2,290.8,77.2z"/>
			<path fill="#FFE500" d="M210.1,261.8c0,24.5,19.9,44.4,44.4,44.4l18.4-41.9l-18.4-46.9C230,217.3,210.1,237.3,210.1,261.8
				L210.1,261.8z"/>
		</g>
		<path fill="#29CCCC" d="M254.5,410.6v72.6c20,0,36.3-16.3,36.3-36.3C290.8,426.9,274.6,410.6,254.5,410.6z"/>
		<path fill="#FDCA4C" d="M299,261.8c0-24.5-19.9-44.4-44.4-44.4v88.9C279,306.2,299,286.3,299,261.8z"/>
	</g>
</g>
</svg>
